<svg xmlns="http://www.w3.org/2000/svg" viewBox="0 0 80 400" width="80" height="400" xmlns:c2pa="http://c2pa.org/manifest"><metadata><c2pa:manifest>AAAWgmp1bWIAAAAeanVtZGMycGEAEQAQgAAAqgA4m3EDYzJwYQAAABZcanVtYgAAAEdqdW1kYzJtYQARABCAAACqADibcQN1cm46YzJwYTpjODcwOTcyNi02YmY5LTQwNTEtYWEzYy03NTk4YmM3N2EzNDIAAAADl2p1bWIAAAApanVtZGMyYXMAEQAQgAAAqgA4m3EDYzJwYS5hc3NlcnRpb25zAAAAALxqdW1iAAAARGp1bWRjYm9yABEAEIAAAKoAOJtxE2MycGEuaW5ncmVkaWVudC52MwAAAAAYYzJzaAoRuglGVQ6SYDBRc22yoxEAAABwY2JvcqNpZGM6Zm9ybWF0bWltYWdlL3N2Zyt4bWxqaW5zdGFuY2VJRHgseG1wOmlpZDo2Y2U1NDE4NS1hYzQxLTRmOTEtOWNlNi0xMGY0YTNkMjQxZjVscmVsYXRpb25zaGlwaHBhcmVudE9mAAAB4mp1bWIAAABBanVtZGNib3IAEQAQgAAAqgA4m3ETYzJwYS5hY3Rpb25zLnYyAAAAABhjMnNoEY5uGs87fKolSWgSBN8ZdwAAAZljYm9yomdhY3Rpb25zgqJmYWN0aW9ua2MycGEub3BlbmVkanBhcmFtZXRlcnOha2luZ3JlZGllbnRzgaJjdXJseC1zZWxmI2p1bWJmPWMycGEuYXNzZXJ0aW9ucy9jMnBhLmluZ3JlZGllbnQudjNkaGFzaFggRfryL3m9SxVAsWx0zpDCtf6jDUGALEo7AFWJ6rv4m3SkZmFjdGlvbngdY29tLmFudGhyb3BpYy5jbGF1ZGUucHJvdmlkZWRqcGFyYW1ldGVyc6F4H2NvbS5hbnRocm9waWMub3JpZ2luLWNvbmZpZGVuY2VndW5rbm93bmtkZXNjcmlwdGlvbnhmQ2xhdWRlIHByb3ZpZGVkIHRoaXMgZmlsZSBhdCB0aGUgcmVxdWVzdCBvZiBhIHVzZXIgYW5kIG1heSBoYXZlIGNyZWF0ZWQgb3IgbW9kaWZpZWQgdGhlIGZpbGUgY29udGVudHMubXNvZnR3YXJlQWdlbnShZG5hbWVmQ2xhdWRlcmFsbEFjdGlvbnNJbmNsdWRlZPUAAADIanVtYgAAAEBqdW1kY2JvcgARABCAAACqADibcRNjMnBhLmhhc2guZGF0YQAAAAAYYzJzaA/uw26DAqyTsCr+cG3lvTgAAACAY2JvcqVjYWxnZnNoYTI1NmNwYWRNAAAAAAAAAAAAAAAAAGRoYXNoWCDR0RIZ0F9lFNVtc3LYUQq49X0zFMapNyb2GOwQNrQAemRuYW1lbmp1bWJmIG1hbmlmZXN0amV4Y2x1c2lvbnOBomVzdGFydBiUZmxlbmd0aBkeBAAAAj5qdW1iAAAAJ2p1bWRjMmNsABEAEIAAAKoAOJtxA2MycGEuY2xhaW0udjIAAAACD2Nib3KlY2FsZ2ZzaGEyNTZpc2lnbmF0dXJleE1zZWxmI2p1bWJmPS9jMnBhL3VybjpjMnBhOmM4NzA5NzI2LTZiZjktNDA1MS1hYTNjLTc1OThiYzc3YTM0Mi9jMnBhLnNpZ25hdHVyZWppbnN0YW5jZUlEeCx4bXA6aWlkOjUzOTQwZjgzLTQ4ZDYtNGI0OC04NWJlLTM0ZGU0N2U4ZGE0NnJjcmVhdGVkX2Fzc2VydGlvbnODomN1cmx4LXNlbGYjanVtYmY9YzJwYS5hc3NlcnRpb25zL2MycGEuaW5ncmVkaWVudC52M2RoYXNoWCBF+vIveb1LFUCxbHTOkMK1/qMNQYAsSjsAVYnqu/ibdKJjdXJseCpzZWxmI2p1bWJmPWMycGEuYXNzZXJ0aW9ucy9jMnBhLmFjdGlvbnMudjJkaGFzaFgg8rHjso0c20kApELKitC9Sg+piAukcOBzrDWPlRZ70wyiY3VybHgpc2VsZiNqdW1iZj1jMnBhLmFzc2VydGlvbnMvYzJwYS5oYXNoLmRhdGFkaGFzaFggslo4bCtUPq4sUk6JnZBIdqAk0tMf6ZmeHW6ohSEg4sx0Y2xhaW1fZ2VuZXJhdG9yX2luZm+jZG5hbWVvQW50aHJvcGljIEZpbGVzZ3ZlcnNpb25lMS4wLjBrc3BlY1ZlcnNpb25lMi40LjAAABA4anVtYgAAAChqdW1kYzJjcwARABCAAACqADibcQNjMnBhLnNpZ25hdHVyZQAAABAIY2JvctKEWQISogEmGCFZAgowggIGMIIBjaADAgECAhRA5aAK7sI50L64g/oGQgU9Z1UTADAKBggqhkjOPQQDAzBJMRcwFQYDVQQKEw5BbnRocm9waWMsIFBCQzEuMCwGA1UEAxMlQW50aHJvcGljIENvbnRlbnQgQ3JlZGVudGlhbHMgUm9vdCBDQTAeFw0yNjA4MDcxODQzNTZaFw0yODA4MDYxOTQzNTZaMEQxFzAVBgNVBAoTDkFudGhyb3BpYywgUEJDMSkwJwYDVQQDEyBBbnRocm9waWMgQ2xhdWRlIENvbnRlbnQgU2lnbmluZzBZMBMGByqGSM49AgEGCCqGSM49AwEHA0IABJh6CmvLUBgFFNU0vUKlOVtE6djd17L5SuwX0LemFisBM3dkd/3cyjxFA3Qo5S46fX0/ihY0VZ7mfb9KF703t5OjWDBWMA4GA1UdDwEB/wQEAwIHgDAVBgNVHSUEDjAMBgorBgEEAYPoXgIBMAwGA1UdEwEB/wQCMAAwHwYDVR0jBBgwFoAUzlHiBIFOZFsj+OPEz5o+nMHXXMIwCgYIKoZIzj0EAwMDZwAwZAIwMXMdFJ4BetLLVY7ORuE9noqbbAZOZn/aArXyTwFAZfKrPzxF2vPoJNf1+UCdg1XGAjBwX1zd9WGqYkqmL5SFqw1QySjr1zJfpJM9+1rdDwSPLMOPOjKuiXjoU/pUUeG9RwmhY3BhZFkNngAAAAAAAAAAAAAAAAAAAAAAAAAAAAAAAAAAAAAAAAAAAAAAAAAAAAAAAAAAAAAAAAAAAAAAAAAAAAAAAAAAAAAAAAAAAAAAAAAAAAAAAAAAAAAAAAAAAAAAAAAAAAAAAAAAAAAAAAAAAAAAAAAAAAAAAAAAAAAAAAAAAAAAAAAAAAAAAAAAAAAAAAAAAAAAAAAAAAAAAAAAAAAAAAAAAAAAAAAAAAAAAAAAAAAAAAAAAAAAAAAAAAAAAAAAAAAAAAAAAAAAAAAAAAAAAAAAAAAAAAAAAAAAAAAAAAAAAAAAAAAAAAAAAAAAAAAAAAAAAAAAAAAAAAAAAAAAAAAAAAAAAAAAAAAAAAAAAAAAAAAAAAAAAAAAAAAAAAAAAAAAAAAAAAAAAAAAAAAAAAAAAAAAAAAAAAAAAAAAAAAAAAAAAAAAAAAAAAAAAAAAAAAAAAAAAAAAAAAAAAAAAAAAAAAAAAAAAAAAAAAAAAAAAAAAAAAAAAAAAAAAAAAAAAAAAAAAAAAAAAAAAAAAAAAAAAAAAAAAAAAAAAAAAAAAAAAAAAAAAAAAAAAAAAAAAAAAAAAAAAAAAAAAAAAAAAAAAAAAAAAAAAAAAAAAAAAAAAAAAAAAAAAAAAAAAAAAAAAAAAAAAAAAAAAAAAAAAAAAAAAAAAAAAAAAAAAAAAAAAAAAAAAAAAAAAAAAAAAAAAAAAAAAAAAAAAAAAAAAAAAAAAAAAAAAAAAAAAAAAAAAAAAAAAAAAAAAAAAAAAAAAAAAAAAAAAAAAAAAAAAAAAAAAAAAAAAAAAAAAAAAAAAAAAAAAAAAAAAAAAAAAAAAAAAAAAAAAAAAAAAAAAAAAAAAAAAAAAAAAAAAAAAAAAAAAAAAAAAAAAAAAAAAAAAAAAAAAAAAAAAAAAAAAAAAAAAAAAAAAAAAAAAAAAAAAAAAAAAAAAAAAAAAAAAAAAAAAAAAAAAAAAAAAAAAAAAAAAAAAAAAAAAAAAAAAAAAAAAAAAAAAAAAAAAAAAAAAAAAAAAAAAAAAAAAAAAAAAAAAAAAAAAAAAAAAAAAAAAAAAAAAAAAAAAAAAAAAAAAAAAAAAAAAAAAAAAAAAAAAAAAAAAAAAAAAAAAAAAAAAAAAAAAAAAAAAAAAAAAAAAAAAAAAAAAAAAAAAAAAAAAAAAAAAAAAAAAAAAAAAAAAAAAAAAAAAAAAAAAAAAAAAAAAAAAAAAAAAAAAAAAAAAAAAAAAAAAAAAAAAAAAAAAAAAAAAAAAAAAAAAAAAAAAAAAAAAAAAAAAAAAAAAAAAAAAAAAAAAAAAAAAAAAAAAAAAAAAAAAAAAAAAAAAAAAAAAAAAAAAAAAAAAAAAAAAAAAAAAAAAAAAAAAAAAAAAAAAAAAAAAAAAAAAAAAAAAAAAAAAAAAAAAAAAAAAAAAAAAAAAAAAAAAAAAAAAAAAAAAAAAAAAAAAAAAAAAAAAAAAAAAAAAAAAAAAAAAAAAAAAAAAAAAAAAAAAAAAAAAAAAAAAAAAAAAAAAAAAAAAAAAAAAAAAAAAAAAAAAAAAAAAAAAAAAAAAAAAAAAAAAAAAAAAAAAAAAAAAAAAAAAAAAAAAAAAAAAAAAAAAAAAAAAAAAAAAAAAAAAAAAAAAAAAAAAAAAAAAAAAAAAAAAAAAAAAAAAAAAAAAAAAAAAAAAAAAAAAAAAAAAAAAAAAAAAAAAAAAAAAAAAAAAAAAAAAAAAAAAAAAAAAAAAAAAAAAAAAAAAAAAAAAAAAAAAAAAAAAAAAAAAAAAAAAAAAAAAAAAAAAAAAAAAAAAAAAAAAAAAAAAAAAAAAAAAAAAAAAAAAAAAAAAAAAAAAAAAAAAAAAAAAAAAAAAAAAAAAAAAAAAAAAAAAAAAAAAAAAAAAAAAAAAAAAAAAAAAAAAAAAAAAAAAAAAAAAAAAAAAAAAAAAAAAAAAAAAAAAAAAAAAAAAAAAAAAAAAAAAAAAAAAAAAAAAAAAAAAAAAAAAAAAAAAAAAAAAAAAAAAAAAAAAAAAAAAAAAAAAAAAAAAAAAAAAAAAAAAAAAAAAAAAAAAAAAAAAAAAAAAAAAAAAAAAAAAAAAAAAAAAAAAAAAAAAAAAAAAAAAAAAAAAAAAAAAAAAAAAAAAAAAAAAAAAAAAAAAAAAAAAAAAAAAAAAAAAAAAAAAAAAAAAAAAAAAAAAAAAAAAAAAAAAAAAAAAAAAAAAAAAAAAAAAAAAAAAAAAAAAAAAAAAAAAAAAAAAAAAAAAAAAAAAAAAAAAAAAAAAAAAAAAAAAAAAAAAAAAAAAAAAAAAAAAAAAAAAAAAAAAAAAAAAAAAAAAAAAAAAAAAAAAAAAAAAAAAAAAAAAAAAAAAAAAAAAAAAAAAAAAAAAAAAAAAAAAAAAAAAAAAAAAAAAAAAAAAAAAAAAAAAAAAAAAAAAAAAAAAAAAAAAAAAAAAAAAAAAAAAAAAAAAAAAAAAAAAAAAAAAAAAAAAAAAAAAAAAAAAAAAAAAAAAAAAAAAAAAAAAAAAAAAAAAAAAAAAAAAAAAAAAAAAAAAAAAAAAAAAAAAAAAAAAAAAAAAAAAAAAAAAAAAAAAAAAAAAAAAAAAAAAAAAAAAAAAAAAAAAAAAAAAAAAAAAAAAAAAAAAAAAAAAAAAAAAAAAAAAAAAAAAAAAAAAAAAAAAAAAAAAAAAAAAAAAAAAAAAAAAAAAAAAAAAAAAAAAAAAAAAAAAAAAAAAAAAAAAAAAAAAAAAAAAAAAAAAAAAAAAAAAAAAAAAAAAAAAAAAAAAAAAAAAAAAAAAAAAAAAAAAAAAAAAAAAAAAAAAAAAAAAAAAAAAAAAAAAAAAAAAAAAAAAAAAAAAAAAAAAAAAAAAAAAAAAAAAAAAAAAAAAAAAAAAAAAAAAAAAAAAAAAAAAAAAAAAAAAAAAAAAAAAAAAAAAAAAAAAAAAAAAAAAAAAAAAAAAAAAAAAAAAAAAAAAAAAAAAAAAAAAAAAAAAAAAAAAAAAAAAAAAAAAAAAAAAAAAAAAAAAAAAAAAAAAAAAAAAAAAAAAAAAAAAAAAAAAAAAAAAAAAAAAAAAAAAAAAAAAAAAAAAAAAAAAAAAAAAAAAAAAAAAAAAAAAAAAAAAAAAAAAAAAAAAAAAAAAAAAAAAAAAAAAAAAAAAAAAAAAAAAAAAAAAAAAAAAAAAAAAAAAAAAAAAAAAAAAAAAAAAAAAAAAAAAAAAAAAAAAAAAAAAAAAAAAAAAAAAAAAAAAAAAAAAAAAAAAAAAAAAAAAAAAAAAAAAAAAAAAAAAAAAAAAAAAAAAAAAAAAAAAAAAAAAAAAAAAAAAAAAAAAAAAAAAAAAAAAAAAAAAAAAAAAAAAAAAAAAAAAAAAAAAAAAAAAAAAAAAAAAAAAAAAAAAAAAAAAAAAAAAAAAAAAAAAAAAAAAAAAAAAAAAAAAAAAAAAAAAAAAAAAAAAAAAAAAAAAAAAAAAAAAAAAAAAAAAAAAAAAAAAAAAAAAAAAAAAAAAAAAAAAAAAAAAAAAAAAAAAAAAAAAAAAAAAAAAAAAAAAAAAAAAAAAAAAAAAAAAAAAAAAAAAAAAAAAAAAAAAAAAAAAAAAAAAAAAAAAAAAAAAAAAAAAAAAAAAAAAAAAAAAAAAAAAAAAAAAAAAAAAAAAAAAAAAAAAAAAAAAAAAAAAAAAAAAAAAAAAAAAAAAAAAAAAAAAAAAAAAAAAAAAAAAAAAAAAAAAAAAAAAAAAAAAAAAAAAAAAAAAAAAAAAAAAAAAAAAAAAAAAAAAAAAAAAAAAAAAAAAAAAAAAAAAAAAAAAAAAAAAAAAAAAAAAAAAAAAAAAAAAAAAAAAAAAAAAAAAAAAAAAAAAAAAAAAAAAAAAAAAAAAAAAAAAAAAAAAAAAAAAAAAAAAAAAAAAAAAAAAAAAAAAAAAAAAAAAAAAAAAAAAAAAAAAAAAAAAAAAAAAAAAAAAAAAAAAAAAAAAAAAAAAAAAAAAAAAAAAAAAAAAAAAAAAAAAAAAAAAAAAAAAAAAAAAAAAAAAAAAAAAAAAAAAAAAAAAAAAAAAAAAAAAAAAAAAAAAAAAAAAAAAAAAAAAAAAAAAAAAAAAAAAAAAAAAAAAAAAAAAAAAAAAAAAAAAAAAAAAAAAAAAAAAAAAAAAAAAAAAAAAAAAAAAAAAAAAAAAAAAAAAAAAAAAAAAAAAAAAAAAAAAAAAAAAAAAAAAAAAAAAAAAAAAAAAAAAAAAAAAAAAAAAAAAAAAAAAAAAAAAAAAAAAAAAAAAAAAAAAAAAAAAAAAAAAAAAAAAAAAAAAAAAAAAAAAAAAAAAAAAAAAAAAAAAAAAAAAAAAAAAAAAAAAAAAAAAAAAAAAAAAAAAAAAAAAAAAAAAAAAAAAAAAAAAAAAAAAAAAAAAAAAAAAAAAAAAAAAAAAAAAAAAAAAAAAAAAAAAAAAAAAAAAAAAAAAAAAAAAAAAAAAAAAAAAAAAAAAAAAAAAAAAAAAAAAAAAAAAAAAAAAAAAAAAAAAAAAAAAAAAAAAAAAAAAAAAAAAAAAAAAAAAAAAAAAAAAAAAAAAAAAAAAAAAAAAAAAAAAAAAAAAAAAAAAAAAAAAAAAAAAAAAAAAAAAAAAAAAAAAAAAAAAAAAAAAAAAAAAAAAAAAAAAAAAAAAAAAAAAAAAAAAAAAAAAAAAAAAAAAAAAAAAAAPZYQNMhz0++I01FNc+ysezzXNmnkr0EbVWk5DO2oELz+i+lyfYW3gn0NhwWeP79z2ceSicM/VUuMH+NFrab+kzY520=</c2pa:manifest></metadata><defs>
<linearGradient id="strap" x1="0" x2="1"><stop offset="0" stop-color="#e2ad3a"/><stop offset=".45" stop-color="#ffd76a"/><stop offset="1" stop-color="#d99a22"/></linearGradient>
<linearGradient id="coinSide" x1="0" x2="1"><stop offset="0" stop-color="#c9921a"/><stop offset=".4" stop-color="#ffd35a"/><stop offset=".7" stop-color="#f0b830"/><stop offset="1" stop-color="#b87f10"/></linearGradient>
<radialGradient id="coinTop" cx=".4" cy=".35" r=".8"><stop offset="0" stop-color="#fff0a8"/><stop offset=".6" stop-color="#ffd24d"/><stop offset="1" stop-color="#e8a820"/></radialGradient>
<linearGradient id="shade" x1="0" x2="1"><stop offset="0" stop-color="#000" stop-opacity=".18"/><stop offset=".25" stop-color="#fff" stop-opacity=".12"/><stop offset=".6" stop-color="#000" stop-opacity="0"/><stop offset="1" stop-color="#000" stop-opacity=".25"/></linearGradient>
</defs><clipPath id="c30"><rect x="6" y="30" width="68" height="370"/></clipPath><g clip-path="url(#c30)"><g transform="translate(8,0)">
<rect x="0.5" y="30" width="60" height="4" rx="1" fill="#1e9a55"/>
<rect x="1.5" y="30" width="58" height="0.8" fill="#5fd08f" opacity=".55"/>
<rect x="1.5" y="33.3" width="58" height="0.7" fill="#0e5c31" opacity=".5"/>
<rect x="1" y="34" width="60" height="4" rx="1" fill="#1b9150"/>
<rect x="2" y="34" width="58" height="0.8" fill="#5fd08f" opacity=".55"/>
<rect x="2" y="37.3" width="58" height="0.7" fill="#0e5c31" opacity=".5"/>
<rect x="3.5" y="38" width="60" height="4" rx="1" fill="#22a35c"/>
<rect x="4.5" y="38" width="58" height="0.8" fill="#5fd08f" opacity=".55"/>
<rect x="4.5" y="41.3" width="58" height="0.7" fill="#0e5c31" opacity=".5"/>
<rect x="3.5" y="42" width="60" height="4" rx="1" fill="#18894a"/>
<rect x="4.5" y="42" width="58" height="0.8" fill="#5fd08f" opacity=".55"/>
<rect x="4.5" y="45.3" width="58" height="0.7" fill="#0e5c31" opacity=".5"/>
<rect x="3" y="46" width="60" height="4" rx="1" fill="#1e9a55"/>
<rect x="4" y="46" width="58" height="0.8" fill="#5fd08f" opacity=".55"/>
<rect x="4" y="49.3" width="58" height="0.7" fill="#0e5c31" opacity=".5"/>
<rect x="0.5" y="50" width="60" height="4" rx="1" fill="#1b9150"/>
<rect x="1.5" y="50" width="58" height="0.8" fill="#5fd08f" opacity=".55"/>
<rect x="1.5" y="53.3" width="58" height="0.7" fill="#0e5c31" opacity=".5"/>
<rect x="3" y="54" width="60" height="4" rx="1" fill="#22a35c"/>
<rect x="4" y="54" width="58" height="0.8" fill="#5fd08f" opacity=".55"/>
<rect x="4" y="57.3" width="58" height="0.7" fill="#0e5c31" opacity=".5"/>
<rect x="3" y="58" width="60" height="4" rx="1" fill="#18894a"/>
<rect x="4" y="58" width="58" height="0.8" fill="#5fd08f" opacity=".55"/>
<rect x="4" y="61.3" width="58" height="0.7" fill="#0e5c31" opacity=".5"/>
<rect x="2" y="62" width="60" height="4" rx="1" fill="#1e9a55"/>
<rect x="3" y="62" width="58" height="0.8" fill="#5fd08f" opacity=".55"/>
<rect x="3" y="65.3" width="58" height="0.7" fill="#0e5c31" opacity=".5"/>
<rect x="0.5" y="66" width="60" height="4" rx="1" fill="#1b9150"/>
<rect x="1.5" y="66" width="58" height="0.8" fill="#5fd08f" opacity=".55"/>
<rect x="1.5" y="69.3" width="58" height="0.7" fill="#0e5c31" opacity=".5"/>
<rect x="1" y="70" width="60" height="4" rx="1" fill="#22a35c"/>
<rect x="2" y="70" width="58" height="0.8" fill="#5fd08f" opacity=".55"/>
<rect x="2" y="73.3" width="58" height="0.7" fill="#0e5c31" opacity=".5"/>
<rect x="0.5" y="74" width="60" height="4" rx="1" fill="#18894a"/>
<rect x="1.5" y="74" width="58" height="0.8" fill="#5fd08f" opacity=".55"/>
<rect x="1.5" y="77.3" width="58" height="0.7" fill="#0e5c31" opacity=".5"/>
<rect x="3" y="78" width="60" height="4" rx="1" fill="#1e9a55"/>
<rect x="4" y="78" width="58" height="0.8" fill="#5fd08f" opacity=".55"/>
<rect x="4" y="81.3" width="58" height="0.7" fill="#0e5c31" opacity=".5"/>
<rect x="1" y="82" width="60" height="4" rx="1" fill="#1b9150"/>
<rect x="2" y="82" width="58" height="0.8" fill="#5fd08f" opacity=".55"/>
<rect x="2" y="85.3" width="58" height="0.7" fill="#0e5c31" opacity=".5"/>
<rect x="2" y="86" width="60" height="4" rx="1" fill="#22a35c"/>
<rect x="3" y="86" width="58" height="0.8" fill="#5fd08f" opacity=".55"/>
<rect x="3" y="89.3" width="58" height="0.7" fill="#0e5c31" opacity=".5"/>
<rect x="2" y="90" width="60" height="4" rx="1" fill="#18894a"/>
<rect x="3" y="90" width="58" height="0.8" fill="#5fd08f" opacity=".55"/>
<rect x="3" y="93.3" width="58" height="0.7" fill="#0e5c31" opacity=".5"/>
<rect x="1" y="94" width="60" height="4" rx="1" fill="#1e9a55"/>
<rect x="2" y="94" width="58" height="0.8" fill="#5fd08f" opacity=".55"/>
<rect x="2" y="97.3" width="58" height="0.7" fill="#0e5c31" opacity=".5"/>
<rect x="3" y="98" width="60" height="4" rx="1" fill="#1b9150"/>
<rect x="4" y="98" width="58" height="0.8" fill="#5fd08f" opacity=".55"/>
<rect x="4" y="101.3" width="58" height="0.7" fill="#0e5c31" opacity=".5"/>
<rect x="0.5" y="102" width="60" height="4" rx="1" fill="#22a35c"/>
<rect x="1.5" y="102" width="58" height="0.8" fill="#5fd08f" opacity=".55"/>
<rect x="1.5" y="105.3" width="58" height="0.7" fill="#0e5c31" opacity=".5"/>
<rect x="3" y="106" width="60" height="4" rx="1" fill="#18894a"/>
<rect x="4" y="106" width="58" height="0.8" fill="#5fd08f" opacity=".55"/>
<rect x="4" y="109.3" width="58" height="0.7" fill="#0e5c31" opacity=".5"/>
<rect x="2" y="110" width="60" height="4" rx="1" fill="#1e9a55"/>
<rect x="3" y="110" width="58" height="0.8" fill="#5fd08f" opacity=".55"/>
<rect x="3" y="113.3" width="58" height="0.7" fill="#0e5c31" opacity=".5"/>
<rect x="3" y="114" width="60" height="4" rx="1" fill="#1b9150"/>
<rect x="4" y="114" width="58" height="0.8" fill="#5fd08f" opacity=".55"/>
<rect x="4" y="117.3" width="58" height="0.7" fill="#0e5c31" opacity=".5"/>
<rect x="3.5" y="118" width="60" height="4" rx="1" fill="#22a35c"/>
<rect x="4.5" y="118" width="58" height="0.8" fill="#5fd08f" opacity=".55"/>
<rect x="4.5" y="121.3" width="58" height="0.7" fill="#0e5c31" opacity=".5"/>
<rect x="1" y="122" width="60" height="4" rx="1" fill="#18894a"/>
<rect x="2" y="122" width="58" height="0.8" fill="#5fd08f" opacity=".55"/>
<rect x="2" y="125.3" width="58" height="0.7" fill="#0e5c31" opacity=".5"/>
<rect x="0" y="70.0" width="64" height="16" rx="1.5" fill="url(#strap)"/>
<rect x="0" y="70.0" width="64" height="1.5" fill="#fff6d6" opacity=".8"/>
<rect x="0" y="84.5" width="64" height="1.5" fill="#a8741a" opacity=".6"/>
<text x="32.0" y="81.6" text-anchor="middle" font-family="Georgia,serif" font-weight="700" font-size="11" fill="#7a4e0c">$</text>
<line x1="8" y1="78.0" x2="24.0" y2="78.0" stroke="#7a4e0c" stroke-width=".8" opacity=".5"/>
<line x1="40.0" y1="78.0" x2="56" y2="78.0" stroke="#7a4e0c" stroke-width=".8" opacity=".5"/>
<rect x="0.5" y="126" width="60" height="4" rx="1" fill="#1e9a55"/>
<rect x="1.5" y="126" width="58" height="0.8" fill="#5fd08f" opacity=".55"/>
<rect x="1.5" y="129.3" width="58" height="0.7" fill="#0e5c31" opacity=".5"/>
<rect x="3" y="130" width="60" height="4" rx="1" fill="#1b9150"/>
<rect x="4" y="130" width="58" height="0.8" fill="#5fd08f" opacity=".55"/>
<rect x="4" y="133.3" width="58" height="0.7" fill="#0e5c31" opacity=".5"/>
<rect x="3" y="134" width="60" height="4" rx="1" fill="#22a35c"/>
<rect x="4" y="134" width="58" height="0.8" fill="#5fd08f" opacity=".55"/>
<rect x="4" y="137.3" width="58" height="0.7" fill="#0e5c31" opacity=".5"/>
<rect x="3.5" y="138" width="60" height="4" rx="1" fill="#18894a"/>
<rect x="4.5" y="138" width="58" height="0.8" fill="#5fd08f" opacity=".55"/>
<rect x="4.5" y="141.3" width="58" height="0.7" fill="#0e5c31" opacity=".5"/>
<rect x="1" y="142" width="60" height="4" rx="1" fill="#1e9a55"/>
<rect x="2" y="142" width="58" height="0.8" fill="#5fd08f" opacity=".55"/>
<rect x="2" y="145.3" width="58" height="0.7" fill="#0e5c31" opacity=".5"/>
<rect x="2" y="146" width="60" height="4" rx="1" fill="#1b9150"/>
<rect x="3" y="146" width="58" height="0.8" fill="#5fd08f" opacity=".55"/>
<rect x="3" y="149.3" width="58" height="0.7" fill="#0e5c31" opacity=".5"/>
<rect x="0.5" y="150" width="60" height="4" rx="1" fill="#22a35c"/>
<rect x="1.5" y="150" width="58" height="0.8" fill="#5fd08f" opacity=".55"/>
<rect x="1.5" y="153.3" width="58" height="0.7" fill="#0e5c31" opacity=".5"/>
<rect x="3" y="154" width="60" height="4" rx="1" fill="#18894a"/>
<rect x="4" y="154" width="58" height="0.8" fill="#5fd08f" opacity=".55"/>
<rect x="4" y="157.3" width="58" height="0.7" fill="#0e5c31" opacity=".5"/>
<rect x="3.5" y="158" width="60" height="4" rx="1" fill="#1e9a55"/>
<rect x="4.5" y="158" width="58" height="0.8" fill="#5fd08f" opacity=".55"/>
<rect x="4.5" y="161.3" width="58" height="0.7" fill="#0e5c31" opacity=".5"/>
<rect x="0.5" y="162" width="60" height="4" rx="1" fill="#1b9150"/>
<rect x="1.5" y="162" width="58" height="0.8" fill="#5fd08f" opacity=".55"/>
<rect x="1.5" y="165.3" width="58" height="0.7" fill="#0e5c31" opacity=".5"/>
<rect x="3" y="166" width="60" height="4" rx="1" fill="#22a35c"/>
<rect x="4" y="166" width="58" height="0.8" fill="#5fd08f" opacity=".55"/>
<rect x="4" y="169.3" width="58" height="0.7" fill="#0e5c31" opacity=".5"/>
<rect x="0.5" y="170" width="60" height="4" rx="1" fill="#18894a"/>
<rect x="1.5" y="170" width="58" height="0.8" fill="#5fd08f" opacity=".55"/>
<rect x="1.5" y="173.3" width="58" height="0.7" fill="#0e5c31" opacity=".5"/>
<rect x="3" y="174" width="60" height="4" rx="1" fill="#1e9a55"/>
<rect x="4" y="174" width="58" height="0.8" fill="#5fd08f" opacity=".55"/>
<rect x="4" y="177.3" width="58" height="0.7" fill="#0e5c31" opacity=".5"/>
<rect x="1" y="178" width="60" height="4" rx="1" fill="#1b9150"/>
<rect x="2" y="178" width="58" height="0.8" fill="#5fd08f" opacity=".55"/>
<rect x="2" y="181.3" width="58" height="0.7" fill="#0e5c31" opacity=".5"/>
<rect x="2" y="182" width="60" height="4" rx="1" fill="#22a35c"/>
<rect x="3" y="182" width="58" height="0.8" fill="#5fd08f" opacity=".55"/>
<rect x="3" y="185.3" width="58" height="0.7" fill="#0e5c31" opacity=".5"/>
<rect x="3.5" y="186" width="60" height="4" rx="1" fill="#18894a"/>
<rect x="4.5" y="186" width="58" height="0.8" fill="#5fd08f" opacity=".55"/>
<rect x="4.5" y="189.3" width="58" height="0.7" fill="#0e5c31" opacity=".5"/>
<rect x="3" y="190" width="60" height="4" rx="1" fill="#1e9a55"/>
<rect x="4" y="190" width="58" height="0.8" fill="#5fd08f" opacity=".55"/>
<rect x="4" y="193.3" width="58" height="0.7" fill="#0e5c31" opacity=".5"/>
<rect x="2" y="194" width="60" height="4" rx="1" fill="#1b9150"/>
<rect x="3" y="194" width="58" height="0.8" fill="#5fd08f" opacity=".55"/>
<rect x="3" y="197.3" width="58" height="0.7" fill="#0e5c31" opacity=".5"/>
<rect x="2" y="198" width="60" height="4" rx="1" fill="#22a35c"/>
<rect x="3" y="198" width="58" height="0.8" fill="#5fd08f" opacity=".55"/>
<rect x="3" y="201.3" width="58" height="0.7" fill="#0e5c31" opacity=".5"/>
<rect x="2" y="202" width="60" height="4" rx="1" fill="#18894a"/>
<rect x="3" y="202" width="58" height="0.8" fill="#5fd08f" opacity=".55"/>
<rect x="3" y="205.3" width="58" height="0.7" fill="#0e5c31" opacity=".5"/>
<rect x="3" y="206" width="60" height="4" rx="1" fill="#1e9a55"/>
<rect x="4" y="206" width="58" height="0.8" fill="#5fd08f" opacity=".55"/>
<rect x="4" y="209.3" width="58" height="0.7" fill="#0e5c31" opacity=".5"/>
<rect x="2" y="210" width="60" height="4" rx="1" fill="#1b9150"/>
<rect x="3" y="210" width="58" height="0.8" fill="#5fd08f" opacity=".55"/>
<rect x="3" y="213.3" width="58" height="0.7" fill="#0e5c31" opacity=".5"/>
<rect x="2" y="214" width="60" height="4" rx="1" fill="#22a35c"/>
<rect x="3" y="214" width="58" height="0.8" fill="#5fd08f" opacity=".55"/>
<rect x="3" y="217.3" width="58" height="0.7" fill="#0e5c31" opacity=".5"/>
<rect x="2" y="218" width="60" height="4" rx="1" fill="#18894a"/>
<rect x="3" y="218" width="58" height="0.8" fill="#5fd08f" opacity=".55"/>
<rect x="3" y="221.3" width="58" height="0.7" fill="#0e5c31" opacity=".5"/>
<rect x="0" y="166.0" width="64" height="16" rx="1.5" fill="url(#strap)"/>
<rect x="0" y="166.0" width="64" height="1.5" fill="#fff6d6" opacity=".8"/>
<rect x="0" y="180.5" width="64" height="1.5" fill="#a8741a" opacity=".6"/>
<text x="32.0" y="177.6" text-anchor="middle" font-family="Georgia,serif" font-weight="700" font-size="11" fill="#7a4e0c">$</text>
<line x1="8" y1="174.0" x2="24.0" y2="174.0" stroke="#7a4e0c" stroke-width=".8" opacity=".5"/>
<line x1="40.0" y1="174.0" x2="56" y2="174.0" stroke="#7a4e0c" stroke-width=".8" opacity=".5"/>
<rect x="1" y="222" width="60" height="4" rx="1" fill="#1e9a55"/>
<rect x="2" y="222" width="58" height="0.8" fill="#5fd08f" opacity=".55"/>
<rect x="2" y="225.3" width="58" height="0.7" fill="#0e5c31" opacity=".5"/>
<rect x="1" y="226" width="60" height="4" rx="1" fill="#1b9150"/>
<rect x="2" y="226" width="58" height="0.8" fill="#5fd08f" opacity=".55"/>
<rect x="2" y="229.3" width="58" height="0.7" fill="#0e5c31" opacity=".5"/>
<rect x="3.5" y="230" width="60" height="4" rx="1" fill="#22a35c"/>
<rect x="4.5" y="230" width="58" height="0.8" fill="#5fd08f" opacity=".55"/>
<rect x="4.5" y="233.3" width="58" height="0.7" fill="#0e5c31" opacity=".5"/>
<rect x="1" y="234" width="60" height="4" rx="1" fill="#18894a"/>
<rect x="2" y="234" width="58" height="0.8" fill="#5fd08f" opacity=".55"/>
<rect x="2" y="237.3" width="58" height="0.7" fill="#0e5c31" opacity=".5"/>
<rect x="0.5" y="238" width="60" height="4" rx="1" fill="#1e9a55"/>
<rect x="1.5" y="238" width="58" height="0.8" fill="#5fd08f" opacity=".55"/>
<rect x="1.5" y="241.3" width="58" height="0.7" fill="#0e5c31" opacity=".5"/>
<rect x="3" y="242" width="60" height="4" rx="1" fill="#1b9150"/>
<rect x="4" y="242" width="58" height="0.8" fill="#5fd08f" opacity=".55"/>
<rect x="4" y="245.3" width="58" height="0.7" fill="#0e5c31" opacity=".5"/>
<rect x="2" y="246" width="60" height="4" rx="1" fill="#22a35c"/>
<rect x="3" y="246" width="58" height="0.8" fill="#5fd08f" opacity=".55"/>
<rect x="3" y="249.3" width="58" height="0.7" fill="#0e5c31" opacity=".5"/>
<rect x="3" y="250" width="60" height="4" rx="1" fill="#18894a"/>
<rect x="4" y="250" width="58" height="0.8" fill="#5fd08f" opacity=".55"/>
<rect x="4" y="253.3" width="58" height="0.7" fill="#0e5c31" opacity=".5"/>
<rect x="2" y="254" width="60" height="4" rx="1" fill="#1e9a55"/>
<rect x="3" y="254" width="58" height="0.8" fill="#5fd08f" opacity=".55"/>
<rect x="3" y="257.3" width="58" height="0.7" fill="#0e5c31" opacity=".5"/>
<rect x="2" y="258" width="60" height="4" rx="1" fill="#1b9150"/>
<rect x="3" y="258" width="58" height="0.8" fill="#5fd08f" opacity=".55"/>
<rect x="3" y="261.3" width="58" height="0.7" fill="#0e5c31" opacity=".5"/>
<rect x="3.5" y="262" width="60" height="4" rx="1" fill="#22a35c"/>
<rect x="4.5" y="262" width="58" height="0.8" fill="#5fd08f" opacity=".55"/>
<rect x="4.5" y="265.3" width="58" height="0.7" fill="#0e5c31" opacity=".5"/>
<rect x="2" y="266" width="60" height="4" rx="1" fill="#18894a"/>
<rect x="3" y="266" width="58" height="0.8" fill="#5fd08f" opacity=".55"/>
<rect x="3" y="269.3" width="58" height="0.7" fill="#0e5c31" opacity=".5"/>
<rect x="2" y="270" width="60" height="4" rx="1" fill="#1e9a55"/>
<rect x="3" y="270" width="58" height="0.8" fill="#5fd08f" opacity=".55"/>
<rect x="3" y="273.3" width="58" height="0.7" fill="#0e5c31" opacity=".5"/>
<rect x="3" y="274" width="60" height="4" rx="1" fill="#1b9150"/>
<rect x="4" y="274" width="58" height="0.8" fill="#5fd08f" opacity=".55"/>
<rect x="4" y="277.3" width="58" height="0.7" fill="#0e5c31" opacity=".5"/>
<rect x="0.5" y="278" width="60" height="4" rx="1" fill="#22a35c"/>
<rect x="1.5" y="278" width="58" height="0.8" fill="#5fd08f" opacity=".55"/>
<rect x="1.5" y="281.3" width="58" height="0.7" fill="#0e5c31" opacity=".5"/>
<rect x="0.5" y="282" width="60" height="4" rx="1" fill="#18894a"/>
<rect x="1.5" y="282" width="58" height="0.8" fill="#5fd08f" opacity=".55"/>
<rect x="1.5" y="285.3" width="58" height="0.7" fill="#0e5c31" opacity=".5"/>
<rect x="3" y="286" width="60" height="4" rx="1" fill="#1e9a55"/>
<rect x="4" y="286" width="58" height="0.8" fill="#5fd08f" opacity=".55"/>
<rect x="4" y="289.3" width="58" height="0.7" fill="#0e5c31" opacity=".5"/>
<rect x="2" y="290" width="60" height="4" rx="1" fill="#1b9150"/>
<rect x="3" y="290" width="58" height="0.8" fill="#5fd08f" opacity=".55"/>
<rect x="3" y="293.3" width="58" height="0.7" fill="#0e5c31" opacity=".5"/>
<rect x="1" y="294" width="60" height="4" rx="1" fill="#22a35c"/>
<rect x="2" y="294" width="58" height="0.8" fill="#5fd08f" opacity=".55"/>
<rect x="2" y="297.3" width="58" height="0.7" fill="#0e5c31" opacity=".5"/>
<rect x="2" y="298" width="60" height="4" rx="1" fill="#18894a"/>
<rect x="3" y="298" width="58" height="0.8" fill="#5fd08f" opacity=".55"/>
<rect x="3" y="301.3" width="58" height="0.7" fill="#0e5c31" opacity=".5"/>
<rect x="1" y="302" width="60" height="4" rx="1" fill="#1e9a55"/>
<rect x="2" y="302" width="58" height="0.8" fill="#5fd08f" opacity=".55"/>
<rect x="2" y="305.3" width="58" height="0.7" fill="#0e5c31" opacity=".5"/>
<rect x="2" y="306" width="60" height="4" rx="1" fill="#1b9150"/>
<rect x="3" y="306" width="58" height="0.8" fill="#5fd08f" opacity=".55"/>
<rect x="3" y="309.3" width="58" height="0.7" fill="#0e5c31" opacity=".5"/>
<rect x="2" y="310" width="60" height="4" rx="1" fill="#22a35c"/>
<rect x="3" y="310" width="58" height="0.8" fill="#5fd08f" opacity=".55"/>
<rect x="3" y="313.3" width="58" height="0.7" fill="#0e5c31" opacity=".5"/>
<rect x="0.5" y="314" width="60" height="4" rx="1" fill="#18894a"/>
<rect x="1.5" y="314" width="58" height="0.8" fill="#5fd08f" opacity=".55"/>
<rect x="1.5" y="317.3" width="58" height="0.7" fill="#0e5c31" opacity=".5"/>
<rect x="0" y="262.0" width="64" height="16" rx="1.5" fill="url(#strap)"/>
<rect x="0" y="262.0" width="64" height="1.5" fill="#fff6d6" opacity=".8"/>
<rect x="0" y="276.5" width="64" height="1.5" fill="#a8741a" opacity=".6"/>
<text x="32.0" y="273.6" text-anchor="middle" font-family="Georgia,serif" font-weight="700" font-size="11" fill="#7a4e0c">$</text>
<line x1="8" y1="270.0" x2="24.0" y2="270.0" stroke="#7a4e0c" stroke-width=".8" opacity=".5"/>
<line x1="40.0" y1="270.0" x2="56" y2="270.0" stroke="#7a4e0c" stroke-width=".8" opacity=".5"/>
<rect x="3.5" y="318" width="60" height="4" rx="1" fill="#1e9a55"/>
<rect x="4.5" y="318" width="58" height="0.8" fill="#5fd08f" opacity=".55"/>
<rect x="4.5" y="321.3" width="58" height="0.7" fill="#0e5c31" opacity=".5"/>
<rect x="0.5" y="322" width="60" height="4" rx="1" fill="#1b9150"/>
<rect x="1.5" y="322" width="58" height="0.8" fill="#5fd08f" opacity=".55"/>
<rect x="1.5" y="325.3" width="58" height="0.7" fill="#0e5c31" opacity=".5"/>
<rect x="3" y="326" width="60" height="4" rx="1" fill="#22a35c"/>
<rect x="4" y="326" width="58" height="0.8" fill="#5fd08f" opacity=".55"/>
<rect x="4" y="329.3" width="58" height="0.7" fill="#0e5c31" opacity=".5"/>
<rect x="3" y="330" width="60" height="4" rx="1" fill="#18894a"/>
<rect x="4" y="330" width="58" height="0.8" fill="#5fd08f" opacity=".55"/>
<rect x="4" y="333.3" width="58" height="0.7" fill="#0e5c31" opacity=".5"/>
<rect x="2" y="334" width="60" height="4" rx="1" fill="#1e9a55"/>
<rect x="3" y="334" width="58" height="0.8" fill="#5fd08f" opacity=".55"/>
<rect x="3" y="337.3" width="58" height="0.7" fill="#0e5c31" opacity=".5"/>
<rect x="2" y="338" width="60" height="4" rx="1" fill="#1b9150"/>
<rect x="3" y="338" width="58" height="0.8" fill="#5fd08f" opacity=".55"/>
<rect x="3" y="341.3" width="58" height="0.7" fill="#0e5c31" opacity=".5"/>
<rect x="3.5" y="342" width="60" height="4" rx="1" fill="#22a35c"/>
<rect x="4.5" y="342" width="58" height="0.8" fill="#5fd08f" opacity=".55"/>
<rect x="4.5" y="345.3" width="58" height="0.7" fill="#0e5c31" opacity=".5"/>
<rect x="2" y="346" width="60" height="4" rx="1" fill="#18894a"/>
<rect x="3" y="346" width="58" height="0.8" fill="#5fd08f" opacity=".55"/>
<rect x="3" y="349.3" width="58" height="0.7" fill="#0e5c31" opacity=".5"/>
<rect x="3" y="350" width="60" height="4" rx="1" fill="#1e9a55"/>
<rect x="4" y="350" width="58" height="0.8" fill="#5fd08f" opacity=".55"/>
<rect x="4" y="353.3" width="58" height="0.7" fill="#0e5c31" opacity=".5"/>
<rect x="2" y="354" width="60" height="4" rx="1" fill="#1b9150"/>
<rect x="3" y="354" width="58" height="0.8" fill="#5fd08f" opacity=".55"/>
<rect x="3" y="357.3" width="58" height="0.7" fill="#0e5c31" opacity=".5"/>
<rect x="3" y="358" width="60" height="4" rx="1" fill="#22a35c"/>
<rect x="4" y="358" width="58" height="0.8" fill="#5fd08f" opacity=".55"/>
<rect x="4" y="361.3" width="58" height="0.7" fill="#0e5c31" opacity=".5"/>
<rect x="2" y="362" width="60" height="4" rx="1" fill="#18894a"/>
<rect x="3" y="362" width="58" height="0.8" fill="#5fd08f" opacity=".55"/>
<rect x="3" y="365.3" width="58" height="0.7" fill="#0e5c31" opacity=".5"/>
<rect x="0.5" y="366" width="60" height="4" rx="1" fill="#1e9a55"/>
<rect x="1.5" y="366" width="58" height="0.8" fill="#5fd08f" opacity=".55"/>
<rect x="1.5" y="369.3" width="58" height="0.7" fill="#0e5c31" opacity=".5"/>
<rect x="0.5" y="370" width="60" height="4" rx="1" fill="#1b9150"/>
<rect x="1.5" y="370" width="58" height="0.8" fill="#5fd08f" opacity=".55"/>
<rect x="1.5" y="373.3" width="58" height="0.7" fill="#0e5c31" opacity=".5"/>
<rect x="2" y="374" width="60" height="4" rx="1" fill="#22a35c"/>
<rect x="3" y="374" width="58" height="0.8" fill="#5fd08f" opacity=".55"/>
<rect x="3" y="377.3" width="58" height="0.7" fill="#0e5c31" opacity=".5"/>
<rect x="2" y="378" width="60" height="4" rx="1" fill="#18894a"/>
<rect x="3" y="378" width="58" height="0.8" fill="#5fd08f" opacity=".55"/>
<rect x="3" y="381.3" width="58" height="0.7" fill="#0e5c31" opacity=".5"/>
<rect x="3.5" y="382" width="60" height="4" rx="1" fill="#1e9a55"/>
<rect x="4.5" y="382" width="58" height="0.8" fill="#5fd08f" opacity=".55"/>
<rect x="4.5" y="385.3" width="58" height="0.7" fill="#0e5c31" opacity=".5"/>
<rect x="3.5" y="386" width="60" height="4" rx="1" fill="#1b9150"/>
<rect x="4.5" y="386" width="58" height="0.8" fill="#5fd08f" opacity=".55"/>
<rect x="4.5" y="389.3" width="58" height="0.7" fill="#0e5c31" opacity=".5"/>
<rect x="0.5" y="390" width="60" height="4" rx="1" fill="#22a35c"/>
<rect x="1.5" y="390" width="58" height="0.8" fill="#5fd08f" opacity=".55"/>
<rect x="1.5" y="393.3" width="58" height="0.7" fill="#0e5c31" opacity=".5"/>
<rect x="0.5" y="394" width="60" height="4" rx="1" fill="#18894a"/>
<rect x="1.5" y="394" width="58" height="0.8" fill="#5fd08f" opacity=".55"/>
<rect x="1.5" y="397.3" width="58" height="0.7" fill="#0e5c31" opacity=".5"/>
<rect x="3.5" y="398" width="60" height="4" rx="1" fill="#1e9a55"/>
<rect x="4.5" y="398" width="58" height="0.8" fill="#5fd08f" opacity=".55"/>
<rect x="4.5" y="401.3" width="58" height="0.7" fill="#0e5c31" opacity=".5"/>
<rect x="3.5" y="402" width="60" height="4" rx="1" fill="#1b9150"/>
<rect x="4.5" y="402" width="58" height="0.8" fill="#5fd08f" opacity=".55"/>
<rect x="4.5" y="405.3" width="58" height="0.7" fill="#0e5c31" opacity=".5"/>
<rect x="2" y="406" width="60" height="4" rx="1" fill="#22a35c"/>
<rect x="3" y="406" width="58" height="0.8" fill="#5fd08f" opacity=".55"/>
<rect x="3" y="409.3" width="58" height="0.7" fill="#0e5c31" opacity=".5"/>
<rect x="3.5" y="410" width="60" height="4" rx="1" fill="#18894a"/>
<rect x="4.5" y="410" width="58" height="0.8" fill="#5fd08f" opacity=".55"/>
<rect x="4.5" y="413.3" width="58" height="0.7" fill="#0e5c31" opacity=".5"/>
<rect x="0" y="358.0" width="64" height="16" rx="1.5" fill="url(#strap)"/>
<rect x="0" y="358.0" width="64" height="1.5" fill="#fff6d6" opacity=".8"/>
<rect x="0" y="372.5" width="64" height="1.5" fill="#a8741a" opacity=".6"/>
<text x="32.0" y="369.6" text-anchor="middle" font-family="Georgia,serif" font-weight="700" font-size="11" fill="#7a4e0c">$</text>
<line x1="8" y1="366.0" x2="24.0" y2="366.0" stroke="#7a4e0c" stroke-width=".8" opacity=".5"/>
<line x1="40.0" y1="366.0" x2="56" y2="366.0" stroke="#7a4e0c" stroke-width=".8" opacity=".5"/>
<rect x="3" y="30" width="58" height="370" fill="url(#shade)"/>
</g></g><rect x="2" y="27" width="76" height="9" fill="url(#coinSide)"/>
<ellipse cx="40.0" cy="36" rx="38.0" ry="4" fill="#b8860b"/>
<rect x="2" y="27" width="76" height="9" fill="url(#coinSide)"/>
<line x1="5" y1="28" x2="5" y2="35" stroke="#9a6d08" stroke-width=".8" opacity=".55"/>
<line x1="9" y1="28" x2="9" y2="35" stroke="#9a6d08" stroke-width=".8" opacity=".55"/>
<line x1="13" y1="28" x2="13" y2="35" stroke="#9a6d08" stroke-width=".8" opacity=".55"/>
<line x1="17" y1="28" x2="17" y2="35" stroke="#9a6d08" stroke-width=".8" opacity=".55"/>
<line x1="21" y1="28" x2="21" y2="35" stroke="#9a6d08" stroke-width=".8" opacity=".55"/>
<line x1="25" y1="28" x2="25" y2="35" stroke="#9a6d08" stroke-width=".8" opacity=".55"/>
<line x1="29" y1="28" x2="29" y2="35" stroke="#9a6d08" stroke-width=".8" opacity=".55"/>
<line x1="33" y1="28" x2="33" y2="35" stroke="#9a6d08" stroke-width=".8" opacity=".55"/>
<line x1="37" y1="28" x2="37" y2="35" stroke="#9a6d08" stroke-width=".8" opacity=".55"/>
<line x1="41" y1="28" x2="41" y2="35" stroke="#9a6d08" stroke-width=".8" opacity=".55"/>
<line x1="45" y1="28" x2="45" y2="35" stroke="#9a6d08" stroke-width=".8" opacity=".55"/>
<line x1="49" y1="28" x2="49" y2="35" stroke="#9a6d08" stroke-width=".8" opacity=".55"/>
<line x1="53" y1="28" x2="53" y2="35" stroke="#9a6d08" stroke-width=".8" opacity=".55"/>
<line x1="57" y1="28" x2="57" y2="35" stroke="#9a6d08" stroke-width=".8" opacity=".55"/>
<line x1="61" y1="28" x2="61" y2="35" stroke="#9a6d08" stroke-width=".8" opacity=".55"/>
<line x1="65" y1="28" x2="65" y2="35" stroke="#9a6d08" stroke-width=".8" opacity=".55"/>
<line x1="69" y1="28" x2="69" y2="35" stroke="#9a6d08" stroke-width=".8" opacity=".55"/>
<line x1="73" y1="28" x2="73" y2="35" stroke="#9a6d08" stroke-width=".8" opacity=".55"/>
<line x1="77" y1="28" x2="77" y2="35" stroke="#9a6d08" stroke-width=".8" opacity=".55"/>
<ellipse cx="40.0" cy="27" rx="38.0" ry="4" fill="url(#coinTop)" stroke="#d9a520" stroke-width=".6"/>
<rect x="0" y="18" width="76" height="9" fill="url(#coinSide)"/>
<ellipse cx="38.0" cy="27" rx="38.0" ry="4" fill="#b8860b"/>
<rect x="0" y="18" width="76" height="9" fill="url(#coinSide)"/>
<line x1="3" y1="19" x2="3" y2="26" stroke="#9a6d08" stroke-width=".8" opacity=".55"/>
<line x1="7" y1="19" x2="7" y2="26" stroke="#9a6d08" stroke-width=".8" opacity=".55"/>
<line x1="11" y1="19" x2="11" y2="26" stroke="#9a6d08" stroke-width=".8" opacity=".55"/>
<line x1="15" y1="19" x2="15" y2="26" stroke="#9a6d08" stroke-width=".8" opacity=".55"/>
<line x1="19" y1="19" x2="19" y2="26" stroke="#9a6d08" stroke-width=".8" opacity=".55"/>
<line x1="23" y1="19" x2="23" y2="26" stroke="#9a6d08" stroke-width=".8" opacity=".55"/>
<line x1="27" y1="19" x2="27" y2="26" stroke="#9a6d08" stroke-width=".8" opacity=".55"/>
<line x1="31" y1="19" x2="31" y2="26" stroke="#9a6d08" stroke-width=".8" opacity=".55"/>
<line x1="35" y1="19" x2="35" y2="26" stroke="#9a6d08" stroke-width=".8" opacity=".55"/>
<line x1="39" y1="19" x2="39" y2="26" stroke="#9a6d08" stroke-width=".8" opacity=".55"/>
<line x1="43" y1="19" x2="43" y2="26" stroke="#9a6d08" stroke-width=".8" opacity=".55"/>
<line x1="47" y1="19" x2="47" y2="26" stroke="#9a6d08" stroke-width=".8" opacity=".55"/>
<line x1="51" y1="19" x2="51" y2="26" stroke="#9a6d08" stroke-width=".8" opacity=".55"/>
<line x1="55" y1="19" x2="55" y2="26" stroke="#9a6d08" stroke-width=".8" opacity=".55"/>
<line x1="59" y1="19" x2="59" y2="26" stroke="#9a6d08" stroke-width=".8" opacity=".55"/>
<line x1="63" y1="19" x2="63" y2="26" stroke="#9a6d08" stroke-width=".8" opacity=".55"/>
<line x1="67" y1="19" x2="67" y2="26" stroke="#9a6d08" stroke-width=".8" opacity=".55"/>
<line x1="71" y1="19" x2="71" y2="26" stroke="#9a6d08" stroke-width=".8" opacity=".55"/>
<line x1="75" y1="19" x2="75" y2="26" stroke="#9a6d08" stroke-width=".8" opacity=".55"/>
<ellipse cx="38.0" cy="18" rx="38.0" ry="4" fill="url(#coinTop)" stroke="#d9a520" stroke-width=".6"/>
<rect x="3.5" y="9" width="76" height="9" fill="url(#coinSide)"/>
<ellipse cx="41.5" cy="18" rx="38.0" ry="4" fill="#b8860b"/>
<rect x="3.5" y="9" width="76" height="9" fill="url(#coinSide)"/>
<line x1="6.5" y1="10" x2="6.5" y2="17" stroke="#9a6d08" stroke-width=".8" opacity=".55"/>
<line x1="10.5" y1="10" x2="10.5" y2="17" stroke="#9a6d08" stroke-width=".8" opacity=".55"/>
<line x1="14.5" y1="10" x2="14.5" y2="17" stroke="#9a6d08" stroke-width=".8" opacity=".55"/>
<line x1="18.5" y1="10" x2="18.5" y2="17" stroke="#9a6d08" stroke-width=".8" opacity=".55"/>
<line x1="22.5" y1="10" x2="22.5" y2="17" stroke="#9a6d08" stroke-width=".8" opacity=".55"/>
<line x1="26.5" y1="10" x2="26.5" y2="17" stroke="#9a6d08" stroke-width=".8" opacity=".55"/>
<line x1="30.5" y1="10" x2="30.5" y2="17" stroke="#9a6d08" stroke-width=".8" opacity=".55"/>
<line x1="34.5" y1="10" x2="34.5" y2="17" stroke="#9a6d08" stroke-width=".8" opacity=".55"/>
<line x1="38.5" y1="10" x2="38.5" y2="17" stroke="#9a6d08" stroke-width=".8" opacity=".55"/>
<line x1="42.5" y1="10" x2="42.5" y2="17" stroke="#9a6d08" stroke-width=".8" opacity=".55"/>
<line x1="46.5" y1="10" x2="46.5" y2="17" stroke="#9a6d08" stroke-width=".8" opacity=".55"/>
<line x1="50.5" y1="10" x2="50.5" y2="17" stroke="#9a6d08" stroke-width=".8" opacity=".55"/>
<line x1="54.5" y1="10" x2="54.5" y2="17" stroke="#9a6d08" stroke-width=".8" opacity=".55"/>
<line x1="58.5" y1="10" x2="58.5" y2="17" stroke="#9a6d08" stroke-width=".8" opacity=".55"/>
<line x1="62.5" y1="10" x2="62.5" y2="17" stroke="#9a6d08" stroke-width=".8" opacity=".55"/>
<line x1="66.5" y1="10" x2="66.5" y2="17" stroke="#9a6d08" stroke-width=".8" opacity=".55"/>
<line x1="70.5" y1="10" x2="70.5" y2="17" stroke="#9a6d08" stroke-width=".8" opacity=".55"/>
<line x1="74.5" y1="10" x2="74.5" y2="17" stroke="#9a6d08" stroke-width=".8" opacity=".55"/>
<line x1="78.5" y1="10" x2="78.5" y2="17" stroke="#9a6d08" stroke-width=".8" opacity=".55"/>
<ellipse cx="41.5" cy="9" rx="38.0" ry="4" fill="url(#coinTop)" stroke="#d9a520" stroke-width=".6"/>
<ellipse cx="41.5" cy="9" rx="32.0" ry="2.6" fill="none" stroke="#c48f12" stroke-width=".8"/></svg>